<svg width="18" height="18" viewBox="0 0 18 18" fill="none" xmlns="http://www.w3.org/2000/svg">
<path d="M3.46298 14.2504C3.11748 14.2504 2.82923 14.1349 2.59823 13.9039C2.36723 13.6729 2.25148 13.3844 2.25098 13.0384V4.96245C2.25098 4.61695 2.36673 4.3287 2.59823 4.0977C2.82973 3.8667 3.11773 3.75095 3.46223 3.75045H14.5397C14.8847 3.75045 15.1727 3.8662 15.4037 4.0977C15.6347 4.3292 15.7505 4.61745 15.751 4.96245V13.0392C15.751 13.3842 15.6352 13.6724 15.4037 13.9039C15.1722 14.1354 14.8842 14.2509 14.5397 14.2504H3.46298ZM15.001 5.1642L9.33697 8.87219C9.28397 8.89969 9.23047 8.92294 9.17647 8.94194C9.12197 8.96044 9.06347 8.96969 9.00097 8.96969C8.93847 8.96969 8.87997 8.96044 8.82547 8.94194C8.77097 8.92344 8.71747 8.90019 8.66497 8.87219L3.00098 5.16345V13.0384C3.00098 13.1734 3.04423 13.2842 3.13073 13.3707C3.21723 13.4572 3.32798 13.5004 3.46298 13.5004H14.5397C14.6742 13.5004 14.7847 13.4572 14.8712 13.3707C14.9577 13.2842 15.001 13.1734 15.001 13.0384V5.1642ZM9.00097 8.25045L14.77 4.50045H3.23198L9.00097 8.25045ZM3.00098 5.32245V4.7142V4.7397V4.50045V4.74045V4.70145V5.32245Z" fill="white"/>
</svg>
